# xmcd CD database file
#
# Track frame offsets:
#	150
#	5763
#	16939
#	28942
#	40347
#	55636
#	73683
#	96805
#	115165
#	131378
#	148762
#	167078
#	189195
#	222957
#	242826
#	266097
#	282421
#	300412
#	314084
#
# Disc length: 4420 seconds
#
# Revision: 0
# Processed by: cddbd v1.5.1PL0 Copyright (c) Steve Scherf et al.
# Submitted via: CDex 1.51
#
DISCID=14114213
DTITLE=Clay Walker - Live From Rodeo Houston 2000
DYEAR=2000
DGENRE=Country
TTITLE0=Concert Intro
TTITLE1=Texas Swing
TTITLE2=Rumour Has It
TTITLE3=Your Beginning To Get To Me
TTITLE4=If I Could Make  A Living
TTITLE5=The Chain Of Love
TTITLE6=Dreaming With My Eyes Wide Open
TTITLE7=Third Hardest Thing I Ever had To Do
TTITLE8=Live Until I Die
TTITLE9=Live Laugh Love
TTITLE10=Hypnotise The Moon
TTITLE11=Cold Hearted
TTITLE12=Once In A Lifetime Love
TTITLE13=Then What
TTITLE14=This Woman, This Man
TTITLE15=Boogie Til The Cows Come Home
TTITLE16=Where Do I Fit In The Picture
TTITLE17=Who Needs You Baby
TTITLE18=What's It To You
EXTD=YEAR: 2000
EXTT0=
EXTT1=
EXTT2=
EXTT3=
EXTT4=
EXTT5=
EXTT6=
EXTT7=
EXTT8=
EXTT9=
EXTT10=
EXTT11=
EXTT12=
EXTT13=
EXTT14=
EXTT15=
EXTT16=
EXTT17=
EXTT18=
PLAYORDER=
